<?xml version="1.0" standalone="no"?>
<!DOCTYPE svg PUBLIC "-//W3C//DTD SVG 20010904//EN"
 "http://www.w3.org/TR/2001/REC-SVG-20010904/DTD/svg10.dtd">
<svg version="1.0" xmlns="http://www.w3.org/2000/svg"
 width="577.000000pt" height="577.000000pt" viewBox="0 0 577.000000 577.000000"
 preserveAspectRatio="xMidYMid meet">
<metadata>
Created by potrace 1.14, written by Peter Selinger 2001-2017
</metadata>
<g transform="translate(0.000000,577.000000) scale(0.100000,-0.100000)"
fill="#000000" stroke="none">
<path d="M1251 5088 c-5 -18 -33 -109 -61 -203 -29 -93 -76 -249 -105 -345
-30 -96 -77 -251 -105 -345 -29 -93 -71 -233 -95 -310 -23 -77 -71 -232 -105
-345 -34 -113 -84 -275 -110 -360 -26 -85 -51 -170 -55 -187 l-7 -33 291 0
291 0 9 23 c5 12 28 85 51 162 23 77 47 158 54 180 l13 40 250 3 251 2 20 -67
c11 -38 34 -120 52 -183 17 -63 36 -125 41 -137 l9 -23 353 0 c195 0 356 2
359 5 3 3 -12 61 -32 128 -21 67 -80 257 -130 422 -51 165 -125 406 -165 535
-40 129 -107 345 -148 480 -41 135 -99 323 -128 418 l-53 172 -367 0 -367 0
-11 -32z m759 -65 c12 -43 55 -184 95 -313 40 -129 114 -370 165 -535 50 -165
122 -399 160 -520 37 -121 89 -290 115 -375 27 -85 58 -188 71 -227 l22 -73
-346 0 -347 0 -44 158 c-24 86 -50 178 -58 205 l-14 47 -262 -2 -262 -3 -60
-200 -60 -200 -278 -3 c-152 -1 -277 1 -277 5 0 8 58 201 177 588 30 99 77
254 105 345 28 91 69 228 93 305 24 77 69 226 100 330 32 105 82 268 111 363
30 94 54 174 54 177 0 3 161 5 359 5 l358 0 23 -77z"/>
<path d="M1551 4403 c-60 -233 -121 -485 -121 -497 0 -14 20 -16 141 -16 129
0 140 1 136 18 -3 9 -34 133 -69 274 -34 142 -66 258 -70 258 -4 0 -12 -17
-17 -37z m84 -266 c31 -125 55 -230 53 -233 -3 -2 -59 -3 -125 -2 l-119 3 60
243 c33 133 63 237 67 230 3 -7 32 -116 64 -241z"/>
<path d="M3785 2919 c-197 -39 -340 -113 -465 -239 -153 -155 -247 -351 -290
-606 -19 -112 -22 -153 -17 -314 6 -207 24 -312 77 -445 41 -103 63 -144 126
-230 129 -177 306 -293 524 -346 138 -33 367 -33 495 0 286 74 483 237 589
487 33 78 69 215 80 307 l6 47 -33 0 c-17 0 -131 7 -252 15 -121 8 -255 15
-297 15 -73 0 -78 -1 -82 -22 -31 -163 -53 -216 -110 -266 -122 -107 -302 -41
-354 130 -39 124 -52 361 -32 543 30 259 110 384 246 385 140 0 218 -100 231
-296 4 -58 10 -94 17 -94 59 -1 653 34 659 40 11 9 -10 149 -38 255 -67 255
-214 449 -418 549 -145 71 -221 87 -432 91 -99 2 -202 -1 -230 -6z m438 -24
c261 -51 448 -197 563 -439 24 -52 53 -128 63 -169 21 -81 46 -235 39 -242 -4
-5 -516 -35 -589 -35 l-47 0 -7 68 c-14 140 -40 207 -103 264 -49 44 -100 62
-163 56 -127 -13 -214 -145 -240 -365 -16 -131 -6 -468 15 -546 43 -156 120
-227 245 -227 144 0 226 94 256 293 6 39 11 47 29 47 84 -2 598 -38 603 -43 8
-9 -23 -165 -49 -247 -115 -364 -431 -580 -847 -580 -505 0 -860 306 -947 816
-23 131 -23 394 -1 526 48 279 168 504 352 655 126 103 273 163 465 187 65 8
285 -3 363 -19z"/>
</g>
</svg>
